<svg width="363" height="98" viewBox="0 0 363 98" fill="none" xmlns="http://www.w3.org/2000/svg">
<path d="M76.1297 73.5711C75.064 74.0504 73.9302 74.2037 72.7283 74.0309C71.5452 73.8608 70.4911 73.393 69.5661 72.6274C68.4441 73.0987 67.4511 73.2722 66.5872 73.148C65.7233 73.0238 65.0393 72.8488 64.535 72.6229C64.0281 72.4159 63.595 72.1619 63.2357 71.8611C62.4983 71.2567 62.1823 70.5883 62.2876 69.8559C62.3416 69.4802 62.4922 69.1664 62.7393 68.9144C63.1065 69.2931 63.6282 69.531 64.3043 69.6282C64.9991 69.7281 65.7196 69.6496 66.4658 69.3927C67.2308 69.1385 67.8456 68.6614 68.3105 67.9615L70.2828 54.2427C70.407 53.3788 70.3204 52.7146 70.023 52.2501C69.5595 51.4743 68.6909 50.6497 67.4171 49.7766C68.7779 49.378 69.6785 48.9803 70.1189 48.5836C70.8627 47.943 71.3008 47.1625 71.4331 46.2423L73.3123 33.1714C72.7249 32.8569 71.9993 32.6376 71.1354 32.5134C70.2903 32.3919 69.3659 32.489 68.3621 32.8047C67.3583 33.1204 66.4187 33.6562 65.5432 34.4121C63.591 36.1249 62.3881 38.5589 61.9345 41.7139C61.6726 43.5356 61.78 44.9216 62.2568 45.8719C61.9639 46.309 61.5076 46.483 60.8879 46.3939C60.2681 46.3048 59.7344 46.0843 59.2866 45.7324C58.8388 45.3805 58.4716 44.9347 58.185 44.3951C57.5929 43.3133 57.3779 42.2089 57.5399 41.0821C57.7019 39.9553 58.0462 39.0272 58.5728 38.2979C57.9967 37.3716 57.7829 36.3921 57.9314 35.3592C58.0826 34.3075 58.4886 33.4841 59.1492 32.889C58.4819 31.9305 58.2509 30.7376 58.4561 29.3103C58.6937 27.6577 59.6136 26.659 61.2158 26.3143C61.6908 26.2101 62.0973 26.1823 62.4354 26.2309C63.0739 26.3227 63.5325 26.5324 63.8113 26.86C63.615 27.2918 63.5034 27.6016 63.4764 27.7894C63.3684 28.5406 63.5773 28.954 64.1032 29.0296C64.3849 29.0701 64.6813 29.0744 64.9926 29.0425L66.3129 28.8585C68.5939 28.5923 70.4668 28.5644 71.9317 28.775C73.3965 28.9856 74.6371 29.4898 75.6533 30.2877C76.7029 29.7868 77.838 29.6242 79.0587 29.7997C80.2794 29.9752 81.3416 30.4537 82.2451 31.2354C83.4074 30.7507 84.5613 30.5908 85.7069 30.7555C87.5286 31.0174 89.0979 31.4347 90.4148 32.0074L92.8248 33.0439C93.1144 33.1623 93.4001 33.2417 93.6818 33.2822C94.2077 33.3578 94.5246 33.02 94.6326 32.2688C94.6596 32.081 94.6398 31.7523 94.5731 31.2826C94.9329 31.0468 95.3569 30.964 95.8452 31.0342C96.3335 31.1044 96.7908 31.2564 97.2172 31.4903C97.6437 31.7241 98.0029 32.0249 98.2951 32.3928C98.933 33.1554 99.1629 34.1564 98.9847 35.3959C98.8092 36.6166 98.2636 37.6116 97.3479 38.3809C97.8141 39.138 97.973 40.033 97.8245 41.0659C97.676 42.0988 97.1841 42.9865 96.349 43.729C96.6702 44.5611 96.7755 45.3621 96.6648 46.1321C96.5541 46.9021 96.3603 47.5834 96.0834 48.1762C95.8065 48.7689 95.4559 49.2744 95.0316 49.6926C94.1104 50.6336 93.0676 51.0204 91.9032 50.853C91.2647 50.7612 90.8665 50.4643 90.7086 49.9624C91.4338 49.1849 91.9206 47.9323 92.169 46.2045C92.4201 44.458 92.4027 42.9124 92.1168 41.5679C91.8524 40.2073 91.408 39.0316 90.7837 38.0409C89.5163 36.0569 87.8497 34.9164 85.7839 34.6194C84.9952 34.506 84.2935 34.5201 83.6789 34.6618L81.7997 47.7327C81.6674 48.653 81.766 49.3668 82.0956 49.8742C82.61 50.6957 83.4639 51.4894 84.6573 52.2552C83.1891 52.7342 82.2362 53.1626 81.7985 53.5406C81.1567 54.1383 80.7737 54.8692 80.6495 55.7331L78.6771 69.4519C78.9071 70.2517 79.3439 70.88 79.9875 71.3367C80.6498 71.7962 81.3284 72.0758 82.0233 72.1757C82.7182 72.2756 83.2951 72.1956 83.7542 71.9358C83.9203 72.2472 83.9763 72.5907 83.9223 72.9663C83.871 73.3231 83.7097 73.645 83.4385 73.9318C83.186 74.2214 82.8558 74.4518 82.4478 74.6232C81.5083 75.0248 80.4563 75.142 79.292 74.9746C78.1464 74.8099 77.0923 74.342 76.1297 73.5711ZM71.4036 65.646C72.3939 65.4242 73.0872 64.2683 73.4835 62.1785C73.8986 60.0913 74.3735 57.1885 74.9081 53.47C75.4427 49.7515 75.7883 47.2806 75.9451 46.0572C76.1233 44.8177 76.257 43.821 76.3462 43.0671C76.6084 40.843 76.5842 39.4785 76.2734 38.9738C75.9841 38.453 75.6906 38.0945 75.3929 37.8984C74.4533 44.4339 73.806 48.1361 73.451 49.0052C73.0801 49.7186 72.3646 50.162 71.3046 50.3355C72.3747 50.8918 72.9444 51.4625 73.0136 52.0475C73.1094 52.9814 72.7482 56.2935 71.9301 61.9839L71.4036 65.646Z" fill="#F0C93E"/>
<path d="M122.485 71.9262C123.012 71.1968 123.829 70.9118 124.937 71.0711C125.688 71.1791 126.226 71.5727 126.55 72.2518C126.818 72.7887 126.9 73.414 126.798 74.1276C126.698 74.8225 126.418 75.5011 125.959 76.1634C125.499 76.8258 124.918 77.4035 124.214 77.8965C123.511 78.3896 122.723 78.8035 121.851 79.1381C120.997 79.4754 120.098 79.7295 119.153 79.9004C117.205 80.2529 115.226 80.2846 113.217 79.9957C111.207 79.7068 109.367 79.1068 107.696 78.1957C106.047 77.2685 104.68 76.1135 103.594 74.7307C101.474 72.0107 100.439 68.5457 100.488 64.3358C100.489 63.3967 100.368 62.7083 100.124 62.2707C99.6603 61.4949 98.8265 60.6945 97.6225 59.8697C99.3617 59.3722 100.573 58.3483 101.256 56.798C101.452 56.3661 101.62 55.9303 101.76 55.4904C102.705 52.2526 104.781 49.6758 107.989 47.7602C111.093 45.9062 114.363 45.2263 117.8 45.7204C121.368 46.2334 124.276 47.9358 126.525 50.8276C128.857 53.8081 129.751 57.1857 129.208 60.9605C129.189 61.092 129.161 61.2221 129.123 61.3508C129.105 61.4823 129.096 61.6057 129.099 61.7211C129.101 61.9707 129.231 62.1331 129.489 62.2085C129.765 62.689 129.868 63.1734 129.798 63.6617C129.636 64.7885 128.939 65.3688 127.707 65.4026C127.399 65.4157 126.918 65.4233 126.266 65.4254L110.014 65.6765L109.625 68.3809C109.312 70.5594 109.721 72.3816 110.852 73.8477C111.916 75.2466 113.396 76.0824 115.293 76.3551C117.302 76.644 118.977 76.463 120.316 75.8122C121.575 75.1882 122.297 74.2376 122.48 72.9606C122.523 72.6601 122.525 72.3153 122.485 71.9262ZM118.864 62.1185L119.998 54.2308C120.176 52.9913 120.063 52.0454 119.658 51.393C118.937 50.2735 118.154 49.6529 117.309 49.5314C116.464 49.4099 115.741 49.4401 115.14 49.6221C114.541 49.7852 113.996 50.1094 113.505 50.5946C112.476 51.616 111.788 53.338 111.439 55.7606L110.504 62.2679L118.864 62.1185ZM123.134 62.0136L123.26 61.1403C123.762 57.6472 123.774 55.4926 123.297 54.6765C123.08 54.3194 122.823 54.0428 122.525 53.8467L121.347 62.0442L123.134 62.0136ZM104.644 70.425C104.937 70.2563 105.102 70.0404 105.14 69.7775C105.199 69.3643 105.191 68.8263 105.113 68.1635C104.767 65.1043 104.677 63.002 104.841 61.8564C105.009 60.692 105.176 59.796 105.343 59.1682C105.512 58.5217 105.71 57.8793 105.936 57.2409C106.345 55.9962 106.751 54.9045 107.155 53.9657C107.415 53.3515 107.562 52.9317 107.594 52.7064C107.659 52.2556 107.575 51.9081 107.342 51.6637C106.418 52.4893 105.636 53.6612 104.996 55.1793C104.356 56.6974 103.818 58.0386 103.383 59.2027C103.216 59.6963 102.592 60.1049 101.51 60.4286C102.457 61.0439 102.943 61.5931 102.97 62.0761C103.208 65.3498 103.491 67.451 103.817 68.3797C104.144 69.3084 104.419 69.9902 104.644 70.425Z" fill="#F0C93E"/>
<path d="M150.279 73.8289C150.17 74.3612 149.99 74.881 149.739 75.3884C149.507 75.8914 149.217 76.359 148.871 76.7914C148.524 77.2237 148.114 77.5931 147.64 77.8994C147.189 78.2198 146.696 78.443 146.16 78.569C144.72 78.9078 143.574 78.7583 142.722 78.1205C141.884 77.4599 141.303 76.437 140.977 75.0518L133.028 41.253L137.708 38.2811L146.107 73.9914C146.194 74.3608 146.357 74.683 146.597 74.9578C146.833 75.2143 147.163 75.2925 147.588 75.1926C148.013 75.0927 148.371 74.8331 148.662 74.4138C148.968 73.9716 149.192 73.5583 149.335 73.1737L150.279 73.8289Z" fill="#B87639"/>
<path d="M163.076 74.9122C161.709 75.2337 160.369 75.2955 159.056 75.0976C157.756 74.8769 156.561 74.4368 155.471 73.7773C154.399 73.1134 153.467 72.2604 152.676 71.2185C151.9 70.1538 151.348 68.9288 151.023 67.5436C150.653 65.9737 150.567 64.4446 150.762 62.9562C150.954 61.4494 151.371 60.0355 152.016 58.7145C152.679 57.3891 153.533 56.1746 154.58 55.0709C155.644 53.9629 156.852 53.0065 158.202 52.2016L159.234 52.9823C158.546 53.7872 157.936 54.6715 157.402 55.6351C156.864 56.5802 156.436 57.5775 156.118 58.6269C155.795 59.6579 155.596 60.7182 155.521 61.8078C155.441 62.879 155.526 63.941 155.773 64.9937C155.982 65.8802 156.33 66.7825 156.819 67.7006C157.308 68.6187 157.906 69.4232 158.615 70.1142C159.323 70.8052 160.128 71.3273 161.03 71.6805C161.945 72.0109 162.92 72.0544 163.955 71.8112C164.878 71.594 165.633 71.241 166.22 70.7522C166.825 70.259 167.282 69.674 167.591 68.9972C167.899 68.3204 168.075 67.5773 168.119 66.768C168.158 65.9401 168.078 65.1014 167.878 64.2518C167.643 63.2545 167.21 62.2843 166.579 61.3412C165.944 60.3797 165.18 59.536 164.288 58.8102C163.415 58.0801 162.456 57.5259 161.412 57.1477C160.368 56.7696 159.318 56.6559 158.262 56.8068C158.735 55.916 159.285 55.0654 159.913 54.255C160.541 53.4446 161.185 52.6598 161.845 51.9005C162.998 51.9994 164.062 52.295 165.035 52.7873C166.027 53.2752 166.904 53.8972 167.667 54.6534C168.448 55.4053 169.11 56.2729 169.653 57.2561C170.192 58.2209 170.587 59.2389 170.839 60.3101C171.182 61.7692 171.265 63.2798 171.087 64.8421C170.927 66.3999 170.513 67.8714 169.844 69.2565C169.19 70.6188 168.292 71.8143 167.15 72.843C166.022 73.8489 164.664 74.5387 163.076 74.9122Z" fill="#B87639"/>
<path d="M220.861 39.7701C220.821 40.1284 220.673 40.4269 220.417 40.6655C220.18 40.9063 219.886 41.0548 219.536 41.1111C218.55 41.2298 217.624 41.3077 216.761 41.3447C215.9 41.3629 215.051 41.3539 214.215 41.3176C213 44.8472 211.599 48.232 210.015 51.4721C208.431 54.7123 206.706 57.8412 204.841 60.859C202.995 63.8789 201.017 66.7982 198.907 69.6168C196.816 72.4375 194.656 75.1931 192.426 77.8838C192.252 78.0743 192.046 78.2135 191.807 78.3013C191.587 78.3913 191.361 78.4424 191.131 78.4548C190.622 78.3979 190.239 78.1545 189.981 77.7248C186.553 72.1865 183.774 66.0621 181.642 59.3515C179.531 52.6242 178.005 45.1891 177.064 37.0462C176.132 36.8465 175.199 36.6467 174.267 36.4469C173.335 36.2472 172.416 36.0108 171.511 35.7377C171.141 35.6389 170.857 35.4449 170.66 35.1556C170.447 34.8453 170.361 34.5017 170.403 34.1245C170.454 33.672 170.664 33.3327 171.033 33.1067C171.404 32.8619 171.749 32.7574 172.07 32.7933C172.108 32.7975 172.135 32.8101 172.152 32.831C172.187 32.8541 172.233 32.8688 172.29 32.8751C173.976 33.3311 175.641 33.7273 177.283 34.0638C178.946 34.3836 180.598 34.6352 182.239 34.8188C183.898 35.0044 185.527 35.1199 187.126 35.1651C188.726 35.1915 190.333 35.1613 191.947 35.0745C192.003 35.0808 192.052 35.0767 192.091 35.0621C192.131 35.0474 192.179 35.0433 192.236 35.0496C192.67 35.0981 193.001 35.2974 193.229 35.6475C193.459 35.9787 193.553 36.3329 193.511 36.71C193.471 37.0683 193.322 37.3761 193.064 37.6337C192.806 37.8912 192.495 38.0282 192.13 38.0447C191.321 38.1069 190.515 38.1408 189.713 38.1465C188.931 38.1354 188.13 38.1317 187.309 38.1352C187.663 40.7713 188.084 43.4054 188.572 46.0374C189.061 48.6694 189.648 51.2648 190.336 53.8236C191.023 56.3824 191.829 58.9067 192.753 61.3966C193.679 63.8676 194.757 66.2696 195.985 68.6025C197.776 66.2447 199.421 63.9087 200.921 61.5946C202.44 59.2826 203.824 56.9841 205.072 54.6992C206.32 52.4142 207.444 50.1344 208.443 47.8598C209.463 45.5684 210.369 43.2737 211.161 40.9758C210.281 40.8201 209.395 40.6351 208.502 40.4207C207.612 40.1874 206.652 39.8986 205.621 39.5542C205.288 39.4596 205.015 39.2572 204.801 38.947C204.607 38.6388 204.529 38.3056 204.569 37.9474C204.614 37.5514 204.804 37.2194 205.139 36.9515C205.493 36.6857 205.859 36.5739 206.236 36.6161C206.312 36.6245 206.367 36.6403 206.403 36.6633C206.457 36.6885 206.503 36.7032 206.541 36.7074C207.756 37.1107 208.873 37.4457 209.894 37.7126C210.916 37.9606 211.927 38.1405 212.926 38.2523C213.925 38.3642 214.923 38.4089 215.918 38.3866C216.915 38.3455 217.994 38.2562 219.155 38.1188C219.212 38.1252 219.27 38.1221 219.328 38.1095C219.387 38.097 219.445 38.0939 219.501 38.1002C219.916 38.1467 220.256 38.347 220.522 38.7013C220.79 39.0368 220.903 39.393 220.861 39.7701Z" fill="#E91E1E"/>
<path d="M241.888 66.8369L241.941 66.3561C242.1 64.9419 242.095 63.6146 241.929 62.3741C241.762 61.1336 241.4 60.0144 240.844 59.0167C240.308 58.0022 239.565 57.1363 238.614 56.419C237.664 55.7016 236.484 55.1591 235.074 54.7914C234.062 54.7927 233.164 54.969 232.38 55.3204C231.596 55.6718 230.904 56.1386 230.305 56.7206C229.726 57.2858 229.222 57.9455 228.794 58.6994C228.366 59.4534 228.001 60.243 227.699 61.0683C227.418 61.8768 227.182 62.7001 226.993 63.538C226.806 64.3571 226.662 65.1333 226.561 65.8666C226.852 65.9946 227.217 66.1405 227.657 66.3043C228.116 66.4701 228.631 66.6424 229.203 66.8209C229.777 66.9806 230.399 67.1361 231.07 67.2875C231.761 67.4221 232.484 67.5316 233.238 67.616C234.841 67.7953 236.356 67.8122 237.786 67.6666C239.233 67.5232 240.601 67.2466 241.888 66.8369ZM244.649 68.2627C244.538 68.7467 244.226 69.1414 243.715 69.4469C243.203 69.7524 242.573 70.0065 241.825 70.2092C241.079 70.393 240.262 70.5306 239.374 70.6221C238.506 70.6969 237.651 70.7444 236.809 70.7647C235.967 70.785 235.193 70.7844 234.489 70.763C233.788 70.7226 233.239 70.6803 232.843 70.636C231.466 70.482 230.204 70.2453 229.056 69.9259C227.927 69.6087 226.997 69.3041 226.266 69.0123C226.248 70.1941 226.336 71.3685 226.53 72.5357C226.724 73.7029 227.072 74.7728 227.574 75.7454C228.079 76.6991 228.752 77.5094 229.593 78.1763C230.437 78.8244 231.5 79.2202 232.783 79.3637C233.254 79.4164 233.798 79.42 234.414 79.3743C235.032 79.3099 235.646 79.1972 236.256 79.0363C236.868 78.8566 237.437 78.6339 237.963 78.3682C238.491 78.0837 238.92 77.7498 239.249 77.3666C239.612 77.0254 240.019 76.8801 240.472 76.9307C240.868 76.975 241.199 77.1743 241.465 77.5286C241.732 77.864 241.845 78.2203 241.803 78.5974C241.759 78.9934 241.601 79.2908 241.331 79.4896C240.8 80.1367 240.102 80.6599 239.237 81.0595C238.371 81.459 237.45 81.7569 236.473 81.9531C235.495 82.1681 234.517 82.2878 233.541 82.3122C232.562 82.3555 231.677 82.3328 230.885 82.2442C228.623 81.991 226.566 81.3504 224.714 80.3223C222.861 79.3131 221.295 78.0306 220.018 76.475C218.742 74.9193 217.794 73.1523 217.175 71.1739C216.575 69.1977 216.398 67.1159 216.642 64.9287C216.91 62.534 217.507 60.4434 218.432 58.6569C219.36 56.8515 220.555 55.3816 222.019 54.2471C223.484 53.0937 225.197 52.2925 227.156 51.8436C229.117 51.3757 231.277 51.2737 233.634 51.5374C235.848 51.8806 237.72 52.4719 239.249 53.3111C240.796 54.1525 242.023 55.2158 242.93 56.5008C243.836 57.7859 244.441 59.2855 244.746 60.9997C245.071 62.6971 245.119 64.5734 244.889 66.6286C244.836 67.1 244.785 67.4761 244.734 67.7568C244.686 68.0187 244.658 68.1873 244.649 68.2627Z" fill="#E91E1E"/>
<path d="M283.491 85.3237C283.411 85.6966 283.206 85.9982 282.875 86.2284C282.545 86.4398 282.192 86.5244 281.815 86.4822L281.702 86.4695C280.808 86.274 279.938 86.1099 279.094 85.9772C278.271 85.8278 277.453 85.7078 276.643 85.6171C275.455 85.4841 274.308 85.4131 273.201 85.4038C272.116 85.3779 271.045 85.3917 269.989 85.4454C269.952 85.4412 269.903 85.4453 269.845 85.4578C269.805 85.4725 269.766 85.4777 269.729 85.4735C269.333 85.4292 269.001 85.2393 268.733 84.9038C268.467 84.5495 268.355 84.1838 268.397 83.8067C268.435 83.4673 268.583 83.1689 268.841 82.9113C269.118 82.6559 269.429 82.5189 269.775 82.5003C270.584 82.4381 271.388 82.4136 272.189 82.4268C273.01 82.4232 273.849 82.4312 274.706 82.4507C274.941 81.8852 275.209 81.1133 275.509 80.135C275.81 79.1568 276.1 78.101 276.379 76.9677C276.677 75.8365 276.939 74.6916 277.164 73.5331C277.408 72.3768 277.582 71.3366 277.685 70.4127C277.793 69.4511 277.853 68.3982 277.867 67.2542C277.899 66.1124 277.782 65.0301 277.514 64.0074C277.268 62.968 276.833 62.0793 276.209 61.3413C275.604 60.6054 274.726 60.1731 273.576 60.0444C272.275 59.8988 271.032 60.0843 269.848 60.6009C268.664 61.1176 267.611 61.8302 266.688 62.7388C265.786 63.6307 265.033 64.6442 264.429 65.7794C263.844 66.9166 263.49 68.0321 263.367 69.1257L263.361 69.1823L261.912 81.6206C262.247 81.6963 262.573 81.7709 262.889 81.8445C263.208 81.8992 263.524 81.9728 263.838 82.0652C264.211 82.1451 264.504 82.3402 264.718 82.6505C264.952 82.944 265.048 83.2793 265.006 83.6564C264.96 84.0712 264.759 84.4115 264.405 84.6774C264.07 84.9453 263.713 85.0582 263.336 85.016C263.261 85.0075 263.207 84.9729 263.176 84.9121C262.057 84.6724 260.91 84.4295 259.735 84.1835C258.579 83.9396 257.35 83.7448 256.049 83.5992C254.88 83.4684 253.639 83.3868 252.325 83.3544C251.028 83.3429 249.629 83.3869 248.129 83.4863C248.049 83.5156 247.953 83.5239 247.84 83.5112C247.406 83.4627 247.075 83.2634 246.847 82.9133C246.619 82.5632 246.526 82.1996 246.568 81.8225C246.606 81.4831 246.745 81.1836 246.984 80.924C247.223 80.6644 247.525 80.5263 247.889 80.5098C248.604 80.437 249.286 80.3988 249.936 80.3951C250.587 80.3726 251.237 80.3689 251.884 80.384L254.302 58.7756C253.12 58.5861 252.128 58.4083 251.326 58.2421C250.545 58.0593 250.109 57.9437 250.019 57.8954C249.646 57.8155 249.353 57.6204 249.139 57.3102C248.945 57.002 248.868 56.6594 248.911 56.2823C248.961 55.8298 249.162 55.4894 249.512 55.2613C249.864 55.0143 250.219 54.9109 250.577 54.951C250.653 54.9594 250.707 54.9846 250.741 55.0265C250.76 55.0287 250.974 55.0718 251.385 55.1559C251.795 55.24 252.328 55.3473 252.981 55.4777C253.654 55.6102 254.412 55.7428 255.256 55.8754C256.101 56.0081 256.975 56.125 257.88 56.2263C258.785 56.3276 259.674 56.4079 260.545 56.4672C261.419 56.5077 262.224 56.4832 262.959 56.3936C262.997 56.3979 263.036 56.3927 263.075 56.378C263.134 56.3655 263.192 56.3624 263.248 56.3687C263.682 56.4172 264.022 56.6176 264.269 56.9698C264.537 57.3052 264.65 57.6615 264.608 58.0386L264.282 60.9518C265.555 59.4714 266.991 58.4103 268.59 57.7683C270.21 57.1095 271.982 56.8877 273.905 57.1029C275.036 57.2295 275.995 57.5372 276.78 58.026C277.586 58.498 278.254 59.0978 278.784 59.8252C279.332 60.5548 279.747 61.3743 280.027 62.2839C280.328 63.1767 280.539 64.1072 280.659 65.0752C280.799 66.0454 280.852 67.025 280.817 68.0139C280.804 68.9861 280.75 69.8965 280.655 70.745C280.549 71.6877 280.386 72.7195 280.165 73.8403C279.947 74.9422 279.7 76.041 279.424 77.1366C279.168 78.2343 278.889 79.2723 278.589 80.2505C278.308 81.2309 278.043 82.0604 277.795 82.7391C278.507 82.857 279.239 82.9769 279.989 83.099C280.757 83.2233 281.533 83.3768 282.314 83.5597C282.743 83.6459 283.052 83.8714 283.241 84.2361C283.45 84.5841 283.533 84.9466 283.491 85.3237Z" fill="#E91E1E"/>
<path d="M309.549 67.9354C309.362 67.0553 309.02 66.2725 308.524 65.5869C308.028 64.9014 307.435 64.3101 306.746 63.813C306.076 63.318 305.337 62.9298 304.528 62.6484C303.722 62.3482 302.894 62.1506 302.046 62.0557C300.764 61.9122 299.6 61.992 298.554 62.295C297.51 62.5791 296.572 63.0278 295.74 63.6411C294.91 64.2355 294.17 64.9641 293.519 65.8268C292.89 66.6728 292.349 67.5859 291.896 68.5662C291.444 69.5275 291.084 70.5277 290.815 71.5668C290.546 72.6058 290.357 73.6156 290.247 74.5961C290.112 75.9746 290.152 77.325 290.367 78.6473C290.602 79.9528 291.023 81.1453 291.627 82.2248C292.253 83.2876 293.051 84.1787 294.02 84.8981C295.011 85.6008 296.194 86.0291 297.571 86.1831C298.834 86.3245 299.989 86.1577 301.034 85.6829C302.082 85.1892 303.025 84.531 303.861 83.7082C304.717 82.8876 305.459 81.9683 306.089 80.9505C306.72 79.9138 307.241 78.9222 307.653 77.9754C308.066 77.0098 308.372 76.1563 308.569 75.4147C308.788 74.6564 308.892 74.1526 308.882 73.9032L309.549 67.9354ZM320.667 90.6574L320.554 90.6448C320.087 90.5543 319.619 90.4733 319.149 90.4017C318.699 90.3322 318.257 90.2732 317.823 90.2247C316.616 90.0897 315.479 90.0196 314.41 90.0146C313.342 90.0096 312.404 90.0288 311.597 90.0722C310.807 90.1365 310.17 90.1989 309.686 90.2593C309.221 90.3218 308.979 90.352 308.96 90.3499C308.899 90.3813 308.831 90.3927 308.756 90.3843C308.681 90.3758 308.615 90.3685 308.558 90.3621C308.124 90.3136 307.784 90.1133 307.537 89.7611C307.288 89.4277 307.184 89.0725 307.227 88.6954L307.765 83.8872C307.23 84.7438 306.58 85.5206 305.814 86.2177C305.068 86.917 304.248 87.503 303.355 87.9759C302.462 88.4487 301.498 88.7895 300.463 88.9982C299.445 89.2279 298.398 89.2826 297.323 89.1624C295.513 88.9598 293.942 88.4118 292.61 87.5182C291.278 86.6246 290.181 85.5091 289.319 84.1716C288.478 82.8175 287.885 81.2906 287.54 79.5911C287.196 77.8916 287.116 76.1357 287.299 74.3235C287.458 72.9093 287.726 71.5361 288.104 70.2038C288.503 68.8548 289.016 67.5949 289.644 66.4241C290.273 65.2345 291.005 64.1519 291.84 63.1761C292.693 62.2025 293.653 61.3934 294.718 60.7489C295.785 60.0855 296.955 59.6056 298.229 59.309C299.503 59.0125 300.885 58.9475 302.375 59.1142C304.015 59.2977 305.487 59.7106 306.79 60.3527C308.092 60.9949 309.204 61.8066 310.125 62.7879L311.401 51.3897C310.238 51.2023 309.257 51.0161 308.456 50.8311C307.675 50.6482 307.237 50.5515 307.143 50.541C306.772 50.4422 306.47 50.2367 306.238 49.9243C306.025 49.614 305.939 49.2703 305.981 48.8932C306.028 48.4784 306.216 48.1559 306.548 47.9257C306.9 47.6787 307.265 47.5763 307.642 47.6185L307.811 47.6375C307.83 47.6396 308.044 47.6921 308.452 47.7951C308.863 47.8793 309.395 47.9865 310.049 48.1169C310.721 48.2494 311.488 48.3925 312.349 48.5461C313.212 48.6809 314.096 48.7989 315.001 48.9002C315.887 48.9993 316.758 49.0681 317.613 49.1064C318.489 49.1281 319.294 49.0941 320.03 49.0046L320.397 49.0457C320.831 49.0943 321.163 49.2841 321.393 49.6154C321.626 49.9277 321.721 50.2725 321.678 50.6496L317.59 87.1916L318.156 87.2549C318.646 87.3098 319.135 87.3741 319.623 87.4478C320.132 87.5047 320.629 87.5889 321.113 87.7003C321.523 87.7845 321.835 87.9817 322.049 88.2919C322.281 88.6043 322.376 88.949 322.334 89.3261C322.283 89.7787 322.072 90.1274 321.701 90.3722C321.351 90.6003 321.007 90.6954 320.667 90.6574Z" fill="#E91E1E"/>
<path d="M353.839 80.3366C353.942 79.4127 353.943 78.4677 353.841 77.5017C353.739 76.5358 353.539 75.5875 353.243 74.657C352.946 73.7265 352.558 72.843 352.079 72.0067C351.6 71.1703 351.033 70.4292 350.38 69.7834C349.748 69.1208 349.025 68.5817 348.213 68.1663C347.421 67.734 346.554 67.4652 345.611 67.3597C344.555 67.2415 343.611 67.3173 342.779 67.5869C341.968 67.8398 341.237 68.2353 340.585 68.7733C339.935 69.2924 339.378 69.9174 338.914 70.6483C338.451 71.3791 338.057 72.1656 337.734 73.0076C337.411 73.8497 337.152 74.7085 336.959 75.5842C336.765 76.4599 336.623 77.3031 336.533 78.1139C336.44 78.9435 336.378 79.834 336.348 80.7852C336.32 81.7175 336.349 82.6562 336.434 83.6012C336.521 84.5274 336.678 85.4327 336.903 86.317C337.129 87.2014 337.46 87.9926 337.898 88.6907C338.335 89.3887 338.891 89.9664 339.565 90.4237C340.259 90.883 341.105 91.1686 342.104 91.2805C343.745 91.464 345.244 91.2881 346.602 90.7528C347.981 90.2007 349.177 89.4086 350.19 88.3764C351.203 87.3442 352.017 86.1275 352.632 84.7262C353.265 83.3271 353.668 81.8639 353.839 80.3366ZM356.78 80.6657C356.527 82.9284 355.889 84.9571 354.868 86.752C353.846 88.5468 352.571 90.046 351.042 91.2496C349.516 92.4343 347.787 93.3004 345.855 93.8479C343.941 94.3975 341.967 94.5584 339.93 94.3305C337.63 94.0731 335.587 93.4723 333.803 92.5281C332.035 91.6048 330.566 90.4 329.396 88.9136C328.226 87.4271 327.388 85.7011 326.883 83.7353C326.396 81.7717 326.284 79.6209 326.545 77.2828C326.794 75.0578 327.411 73.0458 328.395 71.2468C329.379 69.4477 330.625 67.9453 332.135 66.7396C333.647 65.5151 335.359 64.628 337.272 64.0784C339.207 63.5121 341.239 63.3481 343.37 63.5865C345.595 63.8355 347.585 64.4781 349.34 65.5145C351.116 66.5342 352.594 67.826 353.775 69.39C354.957 70.9351 355.812 72.6821 356.338 74.6311C356.865 76.5801 357.012 78.5916 356.78 80.6657Z" fill="#E91E1E"/>
<path d="M335.685 26.5C335.685 22.8915 336.984 19.7904 339.584 17.1968C342.183 14.6032 345.29 13.3064 348.907 13.3064C352.523 13.3064 355.631 14.6032 358.23 17.1968C360.829 19.7904 362.128 22.8915 362.128 26.5H335.685ZM335.685 26.5C335.685 30.1085 334.366 33.2096 331.73 35.8032C329.093 38.3968 325.966 39.6936 322.35 39.6936C318.734 39.6936 315.626 38.3968 313.027 35.8032C310.428 33.2096 309.128 30.1085 309.128 26.5H335.685ZM335.685 26.5C332.069 26.5 328.942 25.2032 326.305 22.6096C323.669 20.016 322.35 16.9149 322.35 13.3064C322.35 9.69787 323.669 6.57801 326.305 3.94681C328.942 1.3156 332.069 0 335.685 0V26.5ZM335.685 26.5C339.301 26.5 342.409 27.7968 345.008 30.3904C347.607 32.984 348.907 36.0851 348.907 39.6936C348.907 43.3021 347.607 46.422 345.008 49.0532C342.409 51.6844 339.301 53 335.685 53V26.5Z" fill="#E91E1E"/>
<path d="M60.1284 91.25C60.1284 89.0563 58.5285 87.2338 56.4145 86.84L54.8718 82.3063C54.6477 81.6336 54.2129 81.0481 53.6299 80.6338C53.0468 80.2194 52.3454 79.9976 51.6264 80H45.7755C44.3013 80 42.9872 80.9225 42.5301 82.3063L41.6273 84.95L40.0275 83.375L40.3589 83.0488C40.4647 82.9446 40.5486 82.821 40.6058 82.6849C40.6631 82.5488 40.6926 82.4029 40.6926 82.2556C40.6926 82.1083 40.6631 81.9625 40.6058 81.8264C40.5486 81.6903 40.4647 81.5667 40.3589 81.4625C40.2531 81.3584 40.1275 81.2757 39.9892 81.2194C39.851 81.163 39.7028 81.134 39.5532 81.134C39.4036 81.134 39.2554 81.163 39.1172 81.2194C38.979 81.2757 38.8534 81.3584 38.7476 81.4625L36.4621 83.7125C36.2484 83.9229 36.1284 84.2082 36.1284 84.5056C36.1284 84.8031 36.2484 85.0884 36.4621 85.2988C36.6758 85.5091 36.9656 85.6273 37.2677 85.6273C37.5699 85.6273 37.8597 85.5091 38.0734 85.2988L38.4162 84.9613L40.4617 86.975C38.6219 87.56 37.2734 89.2475 37.2734 91.25C37.2734 92.9375 38.2219 94.3888 39.6161 95.165C39.746 95.954 40.1561 96.672 40.7735 97.1912C41.3908 97.7104 42.1753 97.997 42.9872 98C44.4728 98 45.7298 97.055 46.2097 95.75H51.2035C51.6721 97.055 52.9291 98 54.4261 98C55.238 97.997 56.0225 97.7104 56.6398 97.1912C57.2571 96.672 57.6673 95.954 57.7972 95.165C59.1799 94.3888 60.1284 92.9375 60.1284 91.25ZM42.9872 95.75C42.3587 95.75 41.8444 95.2438 41.8444 94.625C41.8444 94.0063 42.3587 93.5 42.9872 93.5C43.6157 93.5 44.1299 94.0063 44.1299 94.625C44.1299 95.2438 43.6157 95.75 42.9872 95.75ZM47.5582 86.75H43.4557L43.4329 86.7275L44.6899 83.015C44.7665 82.7916 44.9126 82.5975 45.1074 82.4602C45.3022 82.3229 45.5359 82.2494 45.7755 82.25H47.5582V86.75ZM49.8437 82.25H51.6264C51.8659 82.2494 52.0996 82.3229 52.2944 82.4602C52.4892 82.5975 52.6353 82.7916 52.712 83.015L53.969 86.75H49.8437V82.25ZM54.4147 95.75C53.7861 95.75 53.2719 95.2438 53.2719 94.625C53.2719 94.0063 53.7861 93.5 54.4147 93.5C55.0432 93.5 55.5574 94.0063 55.5574 94.625C55.5574 95.2438 55.0432 95.75 54.4147 95.75Z" fill="#F0C93E"/>
<path d="M45.9139 42.8506L44.6117 38.5157C43.8955 36.1314 41.3505 34.7691 38.9562 35.4884L32.4263 37.4499C31.3455 33.8518 27.5563 31.8236 23.9431 32.9089C20.3299 33.9943 18.2856 37.7749 19.3664 41.3729L12.8365 43.3344C10.4422 44.0536 9.06916 46.5928 9.78535 48.977L11.0875 53.312C7.47428 54.3973 5.43002 58.1779 6.51082 61.7759C7.59162 65.3739 11.3808 67.4022 14.994 66.3169L17.5983 74.9868C18.3145 77.371 20.8595 78.7333 23.2538 78.0141L49.3735 70.1681C51.7679 69.4488 53.1409 66.9097 52.4247 64.5254L49.8203 55.8555C53.4336 54.7701 55.4778 50.9896 54.397 47.3916C53.3162 43.7935 49.5271 41.7652 45.9139 42.8506ZM20.3335 56.4423C19.7931 54.6432 20.8152 52.753 22.6218 52.2103C24.4284 51.6676 26.323 52.6817 26.8634 54.4808C27.4038 56.2798 26.3817 58.17 24.5751 58.7127C22.7685 59.2554 20.8739 58.2413 20.3335 56.4423ZM42.4159 62.8058L25.0028 68.0365L23.7006 63.7015L41.1138 58.4708L42.4159 62.8058ZM37.6349 54.7897C35.8283 55.3324 33.9338 54.3183 33.3934 52.5192C32.853 50.7202 33.8751 48.83 35.6817 48.2873C37.4883 47.7446 39.3829 48.7587 39.9233 50.5577C40.4637 52.3568 39.4416 54.247 37.6349 54.7897Z" fill="#F0C93E"/>
</svg>
